<?xml version="1.0" encoding="UTF-8"?>
<svg id="Layer_1" data-name="Layer 1" xmlns="http://www.w3.org/2000/svg" viewBox="0 0 1080 1080">
  <defs>
    <style>
      .cls-1 {
        fill: #5e1675;
      }

      .cls-1, .cls-2 {
        stroke-width: 0px;
      }

      .cls-2 {
        fill: #ee4266;
      }
    </style>
  </defs>
  <g>
    <path class="cls-2" d="M219.93,483.42c-20.39,0-36.27-4.81-47.64-14.44-11.37-9.62-17.05-23.09-17.05-40.41h31.76c.21,8.77,3.24,15.59,9.09,20.48,5.84,4.88,13.86,7.32,24.06,7.32,9.12,0,16.46-1.85,22.03-5.56,5.56-3.71,8.34-8.66,8.34-14.86,0-5.13-2.23-9.3-6.68-12.51-4.46-3.21-11.74-5.92-21.87-8.13l-16.79-3.64c-31.22-6.77-46.83-21.53-46.83-44.27,0-9.69,2.53-18.16,7.59-25.39,5.06-7.24,12.12-12.89,21.17-16.95,9.05-4.06,19.64-6.09,31.76-6.09,18.32,0,32.84,4.56,43.57,13.69,10.73,9.12,16.34,21.7,16.84,37.74h-30.79c-.57-7.55-3.5-13.51-8.77-17.86-5.27-4.35-12.19-6.52-20.74-6.52s-14.77,1.85-19.94,5.56c-5.17,3.71-7.75,8.45-7.75,14.22,0,4.92,2.14,8.88,6.42,11.87s11.29,5.56,21.06,7.7l15.29,3.31c16.97,3.64,29.39,9.08,37.27,16.31,7.87,7.24,11.81,16.84,11.81,28.81,0,15.33-5.63,27.43-16.89,36.3-11.26,8.88-26.7,13.31-46.3,13.31Z"/>
    <path class="cls-2" d="M361.16,367.94v24.7h-23.09v53.36c0,3.85.76,6.5,2.3,7.96,1.53,1.46,4.44,2.19,8.71,2.19h12.08v24.7h-18.39c-12.4,0-21.55-2.42-27.43-7.27-5.88-4.85-8.82-12.4-8.82-22.67v-58.27h-19.46v-24.7h19.46v-30.79h31.54v30.79h23.09Z"/>
    <path class="cls-2" d="M411.18,483.2c-12.05,0-21.67-3.87-28.87-11.6-7.2-7.73-10.8-18.73-10.8-32.99v-70.68h31.54v64.9c0,7.55,1.8,13.31,5.4,17.27,3.6,3.96,8.71,5.93,15.34,5.93s11.8-2.03,15.93-6.09c4.13-4.06,6.2-10.48,6.2-19.25v-62.76h31.43v112.91h-30.9v-17.75c-3.85,6.42-8.66,11.37-14.43,14.86-5.77,3.49-12.72,5.24-20.85,5.24Z"/>
    <path class="cls-2" d="M538.18,483.2c-9.83,0-18.43-2.46-25.77-7.38-7.35-4.92-13.03-11.8-17.05-20.64-4.03-8.84-6.04-19.14-6.04-30.9s2.05-21.74,6.15-30.58c4.1-8.84,9.8-15.73,17.11-20.69,7.31-4.95,15.77-7.43,25.39-7.43,7.27,0,13.72,1.48,19.35,4.44,5.63,2.96,10.26,7.47,13.9,13.53h.11v-62.01h31.43v159.31h-31.01v-17.32h-.1c-3.28,6.56-7.82,11.48-13.64,14.76-5.81,3.28-12.42,4.92-19.83,4.92ZM546.31,457.54c7.99,0,14.4-3.01,19.25-9.04,4.85-6.02,7.27-14.09,7.27-24.22s-2.42-18.1-7.27-24.16c-4.85-6.06-11.26-9.09-19.25-9.09s-13.74,2.91-18.33,8.71c-4.6,5.81-6.9,13.99-6.9,24.54s2.3,18.73,6.9,24.54c4.59,5.81,10.71,8.71,18.33,8.71Z"/>
    <path class="cls-2" d="M671.17,483.42c-11.41,0-21.33-2.53-29.78-7.59-8.45-5.06-15.01-12.03-19.68-20.9-4.67-8.88-7-19.01-7-30.42s2.37-21.67,7.11-30.58c4.74-8.91,11.28-15.89,19.62-20.95,8.34-5.06,17.89-7.59,28.65-7.59s20.83,2.48,29.14,7.43c8.3,4.96,14.79,11.84,19.46,20.64,4.66,8.81,7,18.94,7,30.42v8.45h-80.3c.28,8.34,2.75,15,7.38,20,4.63,4.99,11.08,7.48,19.35,7.48,6.13,0,11.25-1.32,15.34-3.96,4.1-2.63,6.86-6.13,8.29-10.48h28.76c-1.35,7.48-4.52,14.08-9.52,19.78-4.99,5.71-11.26,10.18-18.82,13.42-7.55,3.24-15.89,4.86-25.02,4.86ZM645.62,412.21h50.36c-.78-7.06-3.4-12.63-7.86-16.73-4.46-4.1-10.24-6.15-17.37-6.15s-12.8,2.05-17.22,6.15c-4.42,4.1-7.05,9.68-7.91,16.73Z"/>
    <path class="cls-2" d="M768.67,418.09v62.76h-31.54v-112.91h31.01v17.75c3.85-6.42,8.66-11.37,14.44-14.86,5.77-3.49,12.72-5.24,20.85-5.24,11.97,0,21.56,3.87,28.76,11.6,7.2,7.73,10.8,18.73,10.8,32.99v70.68h-31.43v-64.9c0-7.55-1.82-13.31-5.45-17.27-3.64-3.96-8.73-5.93-15.29-5.93s-11.8,2.03-15.93,6.09c-4.14,4.06-6.2,10.48-6.2,19.25Z"/>
    <path class="cls-2" d="M924.76,367.94v24.7h-23.09v53.36c0,3.85.76,6.5,2.3,7.96,1.53,1.46,4.44,2.19,8.71,2.19h12.08v24.7h-18.39c-12.4,0-21.55-2.42-27.43-7.27-5.88-4.85-8.82-12.4-8.82-22.67v-58.27h-19.46v-24.7h19.46v-30.79h31.54v30.79h23.09Z"/>
  </g>
  <g>
    <path class="cls-1" d="M357.12,700.94c10.34,5.08,22.07,7.65,34.98,7.7-24.06,31.81-62.21,52.39-105.1,52.39-72.63,0-131.75-59.1-131.75-131.75s59.12-131.75,131.75-131.75c42.89,0,81.06,20.61,105.12,52.44-4.45.03-8.88.37-13.2.99-7.8,1.18-15.16,3.46-21.76,6.7-18.09-17.75-42.89-28.72-70.17-28.72-55.32,0-100.33,45.01-100.33,100.33s45.01,100.33,100.33,100.33c27.26,0,52.03-10.94,70.12-28.67Z"/>
    <path class="cls-1" d="M342.35,691.33c-14.71,13.17-34.12,21.16-55.35,21.16-45.87,0-83.18-37.31-83.18-83.21s37.31-83.18,83.18-83.18c21.29,0,40.71,8.01,55.46,21.23-1.18.99-2.33,2.04-3.4,3.09-5.13,4.87-9.53,10.63-13.09,17.1-.24.39-.47.79-.68,1.2-.65,1.23-1.28,2.51-1.86,3.8-9.35-9.27-22.2-15-36.42-15-23.07,0-42.65,15.16-49.33,36.05h79.36c-.24,1.54-.47,3.14-.65,4.74l-.08.86c-.34,3.25-.5,6.68-.5,10.24,0,5.39.42,10.6,1.23,15.58h-79.36c6.65,20.89,26.26,36.08,49.33,36.08,14.19,0,27.02-5.71,36.37-14.95.6,1.34,1.23,2.62,1.91,3.88.71,1.34,1.47,2.67,2.28,3.95,4.06,6.68,9.03,12.52,14.79,17.39Z"/>
    <path class="cls-1" d="M500.12,622.21v70.44h-35.4v-178.8h35.4v71.16c4.24-6.96,9.58-12.32,16.02-16.08,6.44-3.76,14.1-5.64,22.98-5.64,13.44,0,24.2,4.34,32.28,13.02,8.08,8.68,12.12,21.02,12.12,37.02v79.32h-35.28v-72.84c0-8.48-2.04-14.94-6.12-19.38-4.08-4.44-9.8-6.66-17.16-6.66s-13.24,2.28-17.88,6.84c-4.64,4.56-6.96,11.76-6.96,21.6Z"/>
    <path class="cls-1" d="M661.26,695.53c-12.8,0-24.02-2.76-33.66-8.28-9.64-5.52-17.16-13.22-22.56-23.1-5.4-9.88-8.1-21.46-8.1-34.74s2.7-24.88,8.1-34.8c5.4-9.92,12.92-17.66,22.56-23.22,9.64-5.56,20.86-8.34,33.66-8.34s24.14,2.78,33.78,8.34c9.64,5.56,17.16,13.3,22.56,23.22,5.4,9.92,8.1,21.52,8.1,34.8s-2.7,24.76-8.1,34.68c-5.4,9.92-12.92,17.64-22.56,23.16-9.64,5.52-20.91,8.28-33.78,8.28ZM661.26,666.85c8.64,0,15.6-3.3,20.88-9.9,5.28-6.6,7.92-15.78,7.92-27.54s-2.64-21.08-7.92-27.73c-5.28-6.64-12.24-9.96-20.88-9.96s-15.48,3.32-20.76,9.96c-5.28,6.64-7.92,15.89-7.92,27.73s2.64,20.94,7.92,27.54c5.28,6.6,12.2,9.9,20.76,9.9Z"/>
    <path class="cls-1" d="M417.57,645.01h34.43c-.47,9.77-3.33,18.46-8.51,26.05-5.21,7.59-12.18,13.59-20.95,17.94-8.75,4.35-18.77,6.55-30.06,6.55-12.72,0-23.85-2.8-33.36-8.35-2.28-1.34-4.45-2.8-6.49-4.4-5.52-4.27-10.16-9.5-13.9-15.66-.65-1.05-1.28-2.12-1.86-3.22-1.96-3.64-3.53-7.49-4.77-11.55-2.15-7.02-3.22-14.69-3.22-22.96,0-3.27.16-6.47.5-9.56v-.03c.18-1.57.39-3.14.65-4.66.5-2.96,1.15-5.84,1.99-8.59,1.26-4.14,2.85-8.06,4.84-11.78.1-.21.21-.39.34-.58,2.96-5.47,6.6-10.26,10.87-14.32,3.3-3.25,6.99-6.05,11.05-8.43.58-.34,1.15-.68,1.75-.99,6.05-3.27,12.72-5.47,20-6.57,3.72-.55,7.57-.84,11.6-.84,11.13,0,21.03,2.15,29.69,6.41,8.69,4.29,15.66,10.21,20.89,17.75,5.24,7.57,8.22,16.26,8.93,26.1h-34.2c-.97-6.47-3.59-11.7-7.85-15.71-1.47-1.39-3.12-2.51-4.92-3.4-3.43-1.73-7.46-2.59-12.07-2.59-1.49,0-2.91.1-4.29.29-2.78.39-5.34,1.15-7.7,2.3-3.43,1.7-6.39,4.24-8.88,7.59-1.41,1.91-2.62,4.01-3.64,6.28-.99,2.17-1.78,4.56-2.38,7.07-1.02,4.27-1.54,9.01-1.54,14.24v.37c.05,11.36,2.57,20.4,7.57,27.07.52.71,1.1,1.41,1.65,2.04,4.9,5.39,11.28,8.09,19.22,8.09,7.12,0,12.72-1.99,16.81-6,4.08-4.01,6.68-9.32,7.8-15.97Z"/>
  </g>
</svg>