<svg xmlns="http://www.w3.org/2000/svg" viewBox="0 0 40 40">
  <circle cx="20" cy="20" r="19" fill="#0A0A0A" />
  <path
    fill="#FFFFFF"
    d="M20,3 A17,17 0 0,1 37,20 A17,17 0 0,1 20,37 A17,17 0 0,1 3,20 A17,17 0 0,1 20,3 M20,8 A12,12 0 0,0 8,20 A12,12 0 0,0 20,32 A12,12 0 0,0 32,20 A12,12 0 0,0 20,8"
  />
  <path
    fill="none"
    stroke="#FFFFFF"
    strokeWidth="2"
    d="M15,20 a1,5 0 1,0 2,0 a1,5 0 1,0 -2,0"
  />
  <path
    fill="#0A0A0A"
    d="M14 18 h12 v4 h-12 z"
  />
  <circle cx="20" cy="20" r="1" fill="#FFFFFF" />
</svg>
