<?xml version="1.0" standalone="no"?>
<!DOCTYPE svg PUBLIC "-//W3C//DTD SVG 20010904//EN"
 "http://www.w3.org/TR/2001/REC-SVG-20010904/DTD/svg10.dtd">
<svg version="1.0" xmlns="http://www.w3.org/2000/svg"
 width="166.000000pt" height="55.000000pt" viewBox="0 0 166.000000 55.000000"
 preserveAspectRatio="xMidYMid meet">

<g transform="translate(0.000000,55.000000) scale(0.100000,-0.100000)"
fill="#000000" stroke="none">
<path d="M140 341 l0 -151 179 0 c176 0 181 1 208 24 27 24 28 27 28 125 0 91
-2 103 -23 123 -22 22 -30 23 -207 26 l-185 3 0 -150z m335 -6 l0 -70 -127 -3
-128 -3 0 76 0 76 128 -3 127 -3 0 -70z"/>
<path d="M623 466 c-28 -24 -28 -26 -31 -150 l-4 -126 41 0 41 0 0 103 0 102
43 -95 c46 -102 73 -128 120 -116 25 6 45 39 110 185 10 22 12 12 15 -76 l3
-103 34 0 35 0 0 125 c0 120 -1 127 -25 150 -52 53 -98 21 -151 -105 -20 -50
-40 -90 -43 -90 -4 0 -20 35 -36 77 -31 83 -76 143 -105 143 -11 0 -32 -11
-47 -24z"/>
<path d="M1124 480 c-43 -17 -54 -48 -54 -148 0 -85 2 -95 25 -117 24 -25 26
-25 210 -25 l186 0 -3 38 -3 37 -170 5 -170 5 0 65 0 65 173 3 172 2 0 40 0
40 -172 -1 c-95 0 -183 -4 -194 -9z"/>
<path d="M140 140 c0 -7 232 -10 675 -10 443 0 675 3 675 10 0 7 -232 10 -675
10 -443 0 -675 -3 -675 -10z"/>
<path d="M150 55 c0 -44 1 -45 33 -45 37 0 51 8 60 33 12 33 -10 57 -53 57
l-40 0 0 -45z m70 20 c18 -21 5 -45 -25 -45 -20 0 -25 5 -25 23 0 39 26 50 50
22z"/>
<path d="M260 55 c0 -25 5 -45 10 -45 6 0 10 12 10 28 l0 27 18 -23 18 -24 17
24 16 23 0 -27 c1 -47 21 -31 21 17 0 52 -17 59 -42 18 l-16 -27 -13 27 c-20
43 -39 34 -39 -18z"/>
<path d="M404 92 c-49 -33 3 -98 60 -76 28 11 17 20 -18 16 -23 -3 -35 1 -39
12 -9 24 20 47 51 40 21 -4 24 -3 12 5 -17 12 -50 14 -66 3z"/>
<path d="M500 55 c0 -25 5 -45 10 -45 6 0 10 9 10 20 0 13 7 20 20 20 11 0 20
5 20 10 0 6 -9 10 -20 10 -33 0 -23 18 13 23 28 3 26 4 -10 5 l-43 2 0 -45z"/>
<path d="M600 55 c0 -25 5 -45 10 -45 6 0 10 20 10 45 0 25 -4 45 -10 45 -5 0
-10 -20 -10 -45z"/>
<path d="M644 85 c-8 -20 4 -35 26 -35 10 0 22 -5 26 -11 5 -8 -3 -10 -25 -7
-20 3 -30 1 -28 -6 6 -18 53 -18 67 0 12 14 12 18 -5 30 -10 8 -27 14 -38 14
-10 0 -15 5 -11 11 3 6 17 8 31 4 16 -4 22 -2 18 5 -9 15 -55 12 -61 -5z"/>
<path d="M730 55 c0 -25 5 -45 10 -45 6 0 10 9 10 20 0 15 7 20 25 20 18 0 25
-5 25 -20 0 -11 5 -20 10 -20 6 0 10 20 10 45 0 25 -4 45 -10 45 -5 0 -10 -7
-10 -15 0 -9 -9 -15 -25 -15 -16 0 -25 6 -25 15 0 8 -4 15 -10 15 -5 0 -10
-20 -10 -45z"/>
<path d="M850 55 c0 -25 5 -45 10 -45 6 0 10 20 10 45 0 25 -4 45 -10 45 -5 0
-10 -20 -10 -45z"/>
<path d="M890 55 c0 -25 5 -45 10 -45 6 0 10 12 10 27 l0 27 28 -27 c15 -15
31 -27 35 -27 4 0 7 20 7 45 0 25 -4 45 -10 45 -5 0 -10 -12 -10 -27 l0 -27
-28 27 c-15 15 -31 27 -35 27 -4 0 -7 -20 -7 -45z"/>
<path d="M1012 88 c-16 -16 -15 -53 2 -67 23 -19 71 -10 71 14 0 11 -8 21 -17
23 -10 2 -18 -1 -18 -7 0 -5 8 -12 18 -14 9 -3 2 -5 -15 -6 -28 -1 -33 2 -33
23 0 27 18 37 51 29 15 -4 20 -3 15 5 -9 16 -59 15 -74 0z"/>
<path d="M1162 88 c-16 -16 -15 -53 2 -67 17 -15 68 -11 73 5 2 7 -8 9 -27 6
-36 -5 -52 21 -28 45 13 12 20 13 38 3 18 -10 21 -9 18 2 -6 17 -60 22 -76 6z"/>
<path d="M1270 86 c-15 -19 -9 -56 11 -69 9 -5 28 -7 42 -3 52 13 42 86 -12
86 -16 0 -34 -7 -41 -14z m60 -11 c18 -21 5 -47 -22 -43 -26 3 -37 36 -16 49
18 12 24 11 38 -6z"/>
<path d="M1381 53 c1 -41 2 -44 8 -18 l7 30 13 -24 13 -24 19 24 19 24 0 -27
c0 -16 5 -28 10 -28 6 0 10 20 10 45 0 52 -20 61 -39 18 l-13 -28 -14 28 c-22
41 -34 33 -33 -20z"/>
</g>
</svg>
